<?xml version="1.0" encoding="utf-8"?>
<!-- Generator: Adobe Illustrator 21.0.2, SVG Export Plug-In . SVG Version: 6.00 Build 0)  -->
<svg version="1.1" id="Capa_1" xmlns="http://www.w3.org/2000/svg" xmlns:xlink="http://www.w3.org/1999/xlink" x="0px" y="0px"
	 viewBox="0 0 25.7 25.7" style="enable-background:new 0 0 25.7 25.7;" xml:space="preserve">
<style type="text/css">
	.st0{fill:#FFFFFF;}
</style>
<g>
	<path class="st0" d="M5.7,2.2C5.7,2.2,5.7,2.2,5.7,2.2c0,0,0.1-0.1,0.2-0.2c2-1.3,4.3-2,6.9-2c2.4,0,4.7,0.7,6.6,1.8
		c0.1,0.1,0.5,0.3,0.7,0.6v0c-1.9-2.1-7.3,2.4-7.3,2.4C11,3.3,9.2,2.3,7.9,2C6.8,1.7,6.1,1.9,5.7,2.2z M22.3,4.1
		c-0.1-0.1-0.1-0.1-0.2-0.2c-0.5-0.5-1-0.6-1.6-0.6c-0.5,0.1-2.7,0.9-5.4,3.5c0,0,3,3,4.9,6c1.9,3,3,5.4,2.3,8.7
		c2.1-2.3,3.3-5.3,3.3-8.7C25.7,9.5,24.4,6.4,22.3,4.1z M17.7,14.1c-0.8-0.9-2.1-2.3-3.7-3.9c-0.4-0.4-0.7-0.7-1.1-1.1
		c0,0-0.6,0.6-1.4,1.4v0c-1,1-2.3,2.3-3,3.1c-1.3,1.4-4.9,5.6-5.1,8c0,0-0.8-1.9,1-6.2c1.2-2.8,4.7-7.1,6.1-8.5c0,0-1.3-1.5-3-2.5
		l0,0c0,0,0,0,0,0C6.6,3.8,5.7,3.4,4.9,3.4C4,3.4,3.5,4.1,3.5,4.1C1.3,6.4,0,9.5,0,12.9C0,20,5.8,25.7,12.9,25.7
		c3.8,0,7.2-1.6,9.5-4.2c0,0-0.3-1.7-2-4.1C20,16.8,18.5,15,17.7,14.1z"/>
</g>
</svg>
